<?xml version="1.0" standalone="no"?>
<!DOCTYPE svg PUBLIC "-//W3C//DTD SVG 1.0//EN" "http://www.w3.org/TR/2001/REC-SVG-20010904/DTD/svg10.dtd">
<svg version="1.0" xmlns="http://www.w3.org/2000/svg" width="3450px" height="1071px" viewBox="0 0 3450 1071" preserveAspectRatio="xMidYMid meet" xmlns:inkscape ="http://www.inkscape.org/namespaces/inkscape" >
<desc>CopyRight:SVG Design Editor;
configurationStart;Unit=smInches;Dpi=96;Division=4;Grid=True;Zoom=0.2217914;CanvasW=3450;CanvasH=1071;configurationEnd;</desc>
<g inkscape:label = "microsoft_logo Default Layer" inkscape:groupmode = "layer" ><g id="group_1">
<path style="fill:#41693D;stroke:none; stroke-width:1" d="m499.5,1069.9c-115.1,-3.7 -228.2,-48.1 -318,-124.7c-12.9,-11 -44.7,-42.8 -55.7,-55.7c-33.8,-39.6 -62.4,-85.4 -82.7,-132.3c-58.6,-135.3 -56.5,-290.9 5.7,-424.7c6.9,-14.8 17.2,-34.5 18.1,-34.5c0.3,0 2.6,5.7 5,12.8c2.4,7 6.8,18.7 9.8,26.1c3.8,9.6 5,13.7 4.2,14.2c-0.9,0.5 -0.9,2.8 0,9.6l1.2,8.8l-3.5,8.8l-3.5,8.9l1.4,7c0.8,3.8 1.5,7.1 1.5,7.4c0,0.2 3.3,0.4 7.3,0.4l7.4,0l3.3,4.1c3.4,4.3 4,4.4 12.2,2.6c0.6,-0.1 1.2,0.3 1.5,0.9c0.2,0.6 -1.9,1.4 -5.1,2l-5.5,0.9l-43.9,60l-43.9,60l0.9,36l1,36l4.6,5c52.6,56.3 58.4,62.3 60,61.9c0.9,-0.2 20.2,-4.3 42.7,-9l41,-8.6l8.6,9l8.7,9l11.6,0.8l11.6,0.7l-0.1,4.6c0,2.5 -0.6,12.2 -1.2,21.5l-1.2,16.8l4.1,9.7c2.3,5.3 10.2,23.6 17.6,40.7l13.5,31.1l-8.7,28.1l-8.8,28.1l25.5,67.8c14,37.3 25.8,68.2 26.3,68.6c0.4,0.5 15.2,-1.5 32.8,-4.4l32.1,-5.2l26.2,-37.6l26.1,-37.6l-1.1,-13c-0.7,-7.1 -1.4,-14.9 -1.7,-17.1l-0.6,-4.2l20.1,-16.8l20.1,-16.8l2.6,-7.2l2.6,-7.2l-2.1,-13.8c-1.2,-7.7 -2.1,-14.5 -2.1,-15.2c0,-0.7 4.2,2.3 9.3,6.6c5,4.3 15.1,12.6 22.3,18.4l13.1,10.5l-8.9,6.9l-8.8,6.9l0.5,4c1.5,11.7 0.6,23 -3.3,40l-3.9,17l5.7,5.9l5.7,5.8l5.7,-1.3c3.1,-0.7 6.3,-1.7 7,-2.3c0.8,-0.6 5.3,-15.7 10.1,-33.6c4.8,-17.9 9,-32.8 9.4,-33.2c0.4,-0.4 5.6,2.8 11.6,7.3l11,8l0.2,10c0.4,24.4 9,43.8 26.7,60.7c9.4,8.8 20.6,15.3 33.6,19.4c6.5,2 9.5,2.3 23,2.3c17.3,0 23.9,-1.4 37.6,-8.1l7.1,-3.5l24.9,12.4c35.9,17.8 66.6,30.5 99.7,41.3c6.4,2.1 11.7,4.1 11.7,4.5c0,0.9 -20.3,11.8 -38,20.3c-56.6,27.1 -121,44.1 -184,48.5c-20.9,1.5 -34.7,1.7 -58.5,1l0,0l0,0z" transform = "matrix(0.9999999,0,0,0.9999999,4.508742,0)" vector-effect="non-scaling-stroke" pen = "1,1" />
<path style="fill:#41693D;stroke:none; stroke-width:1" d="m873,996.8c-27.5,-2.5 -67.1,-11.3 -98.8,-21.8c-32.1,-10.6 -56.4,-20.6 -90.4,-37.2l-22.6,-11.1l4.1,-5.1c2.3,-2.8 5.3,-7.2 6.7,-9.9c1.4,-2.6 2.8,-4.7 3.3,-4.7c0.4,0 5.6,2.5 11.7,5.5c85.9,43.1 170.7,65.4 230.5,60.6c40.2,-3.3 68.7,-15 91.1,-37.5c10.2,-10.2 15.3,-17.4 21.8,-30.3c11.7,-23.4 16.3,-48.7 15.3,-84.3c-0.7,-26.6 -4.5,-52.1 -11.8,-79c-3.2,-11.9 -14.2,-46 -14.8,-46c-0.3,0 -2.8,6.9 -5.4,15.3c-27.2,85.5 -80.8,167.5 -148.7,227.6c-12.1,10.7 -8.9,10.2 -31.5,5.1c-39.5,-8.8 -85.8,-25.8 -133,-48.8l-18,-8.8l-0.1,-14.9c-0.1,-13.2 -0.4,-16.1 -2.7,-23.8c-7.5,-24.4 -23.4,-42.8 -46.1,-53.2c-9.9,-4.6 -17.4,-6.4 -29.3,-7.2c-17.3,-1 -35.2,3.3 -48.3,11.8l-6.1,3.9l-14,-10.6c-21.5,-16.2 -47.3,-37 -66.6,-53.7c-9.6,-8.4 -18.6,-16.1 -19.9,-17.3l-2.5,-2.1l18.8,-23.1l18.9,-23.1l13.1,-32.8c7.9,-19.9 12.7,-32.9 12,-33.1c-0.7,-0.1 -13.6,2.4 -28.7,5.7l-27.5,5.8l-1.6,-2.6c-7.7,-12.2 -83.9,-151.6 -83.7,-152.9c0.3,-1.1 1.2,-0.2 2.7,2.8c2.6,5.1 8.8,12 10.8,12c0.9,0 1.3,-1.4 1.3,-4.2c0,-2.4 0.5,-5 1,-5.8c0.7,-1.1 1,-0.2 1,3.1c0,3.6 0.4,4.8 2,5.5c1,0.5 11.5,15.8 23.3,34c21.1,32.6 21.6,33.5 28.5,51c4,10.3 8,22.5 9.3,28.7l2.4,10.7l7.1,0c6.8,0 8,-0.4 32.1,-10.9c24.1,-10.4 25.7,-11.3 42.4,-23.1c9.6,-6.7 18.1,-12.9 19,-13.9c1.6,-1.5 15.2,-30.1 14.7,-30.6c-0.2,-0.2 -4.1,-2.8 -8.8,-5.8l-8.5,-5.6l-4.5,-10c-2.4,-5.6 -4.7,-10.1 -5.1,-10.1c-0.4,0 -4.5,3.6 -9.3,8l-8.6,8l-7.4,0c-8.5,0 -8.6,-0.1 -8.6,-9c0,-3.9 -0.5,-6.2 -1.5,-7c-1.5,-1.3 -2.5,0.3 -4.1,6.6c-0.3,1.3 -0.9,2.6 -1.3,2.8c-0.7,0.5 -23.5,-37.3 -22.9,-37.9c0.2,-0.2 3.4,-0.9 7.1,-1.5l6.7,-1l17.3,13l17.3,13l7.3,-1.4l7.4,-1.4l13.4,7.5l13.4,7.6l21.4,-0.7l21.3,-0.7l17.7,19.1c9.7,10.4 18,19 18.3,19c0.4,0 3.4,-2.8 6.8,-6.1l6.2,-6.1l0.6,2.8c0.3,1.6 1.8,10.8 3.2,20.4l2.6,17.5l15.5,37c8.5,20.4 15.7,37.3 16.1,37.6c0.4,0.4 2.3,0.9 4.3,1.3l3.5,0.6l7.3,-15.4l7.3,-15.5l-1.3,-13.8c-0.8,-7.6 -1.4,-14.1 -1.4,-14.5c0,-0.3 10.2,-11.1 22.6,-24l22.7,-23.3l13.7,-5.9c11.5,-4.9 13.9,-5.6 15,-4.5c0.7,0.8 5.2,5.9 10,11.4c4.9,5.5 9.7,11 10.8,12.2c1.2,1.3 2.9,6.9 4.6,14.5l2.7,12.3l3.8,1.8l3.7,1.8l6.7,-6c3.6,-3.3 6.7,-5.9 6.8,-5.8c0.1,0.1 2.9,9.2 6.3,20.2l6.1,20.1l0,15.4l0.1,15.5l8.3,10.7c4.6,5.8 8.6,11.9 9,13.5c0.4,1.5 2,7.1 3.7,12.4l2.9,9.6l10.9,7.6c6,4.3 11.1,7.7 11.4,7.7c0.2,0 -1,-7.3 -2.8,-16.2l-3.3,-16.3l-8.5,-8c-4.8,-4.6 -11.3,-12.2 -15.2,-17.9l-6.8,-9.8l0.6,-16.5c0.4,-9.1 0.8,-16.8 1,-17c0.3,-0.2 1.6,-0.5 2.9,-0.6c1.9,-0.2 5.6,2.6 16,12l13.5,12.2l1.9,7.1c1,3.8 2,7 2.3,7c0.3,-0.1 7.4,-5.1 15.7,-11.3l15.1,-11.3l-4.8,-17.3c-2.7,-9.5 -5.2,-17.8 -5.7,-18.5c-0.5,-0.6 -5.9,-7.5 -12.1,-15.4l-11.3,-14.2l5.7,-7l5.7,-7l10.3,0c7.3,0 12.2,-0.6 16.6,-1.9c3.5,-1.1 11,-3.3 16.6,-5l10.2,-3.1l14.2,-15.6l14.3,-15.6l0.9,-21.1l0.9,-21.1l-14.8,-14.1l-14.8,-14.2l7.8,-9.1c4.3,-5 7.5,-9.5 7.2,-10c-0.3,-0.4 -3.9,-1.7 -8,-2.7c-7,-1.8 -8,-1.8 -13.3,-0.4l-5.8,1.5l-7.2,-5.4c-4,-3 -7.3,-5.7 -7.3,-6.1c0,-1.1 13.3,-15.6 14.9,-16.3c0.9,-0.4 2.8,-0.7 4.3,-0.7c2.5,-0.1 2.8,0.3 3.4,3.9c0.5,2.8 1.7,4.9 4.1,7l3.4,3l2.7,-2c2.4,-1.8 3.7,-2 9.8,-1.4l7,0.6l3.1,6.8c3,6.7 3.2,6.9 7.5,7.5c2.5,0.4 4.9,1 5.5,1.3c0.5,0.4 2.9,6.4 5.2,13.4c2.4,7.1 4.6,12.8 4.9,12.8c0.4,0 3.1,-0.9 6.1,-2.1c3,-1.1 5.7,-1.6 6.2,-1.2c1,1.1 7.3,29.9 9.8,44.8c9.6,57.8 9.4,116.3 -0.5,174.2l-2.4,14.1l5.4,13.5c16.9,42 28.7,84.7 33.7,122.3c2.8,21.1 3.1,54.5 0.6,71.7c-11.9,80.1 -62.4,127.6 -144.6,135.7c-12.1,1.2 -37.5,1.1 -51.1,-0.2l0,0zm28.8,-244.9l4,-1.2l1.1,-7.4c1.9,-12.9 2,-12.6 -7,-21.9c-7.7,-7.8 -8.1,-8.5 -7.6,-11.8c0.5,-3.3 0.2,-3.9 -6.7,-10.3c-4,-3.7 -13.4,-11.5 -20.8,-17.3c-11.2,-8.6 -13.9,-11.2 -15.2,-14.6l-1.7,-4.1l-9.1,-0.7c-5,-0.4 -9.2,-0.5 -9.5,-0.3c-0.2,0.3 5.7,7.4 13,15.9l13.5,15.4l9.7,20.3l9.8,20.3l10.1,9.9c5.6,5.4 10.6,9.7 11.2,9.5c0.7,-0.3 3,-1 5.2,-1.7l0,0z" transform = "matrix(0.9999999,0,0,0.9999999,4.508742,0)" vector-effect="non-scaling-stroke" pen = "1,1" />
<path style="fill:#41693D;stroke:none; stroke-width:1" d="m583.2,933c-21.5,-5.6 -38.3,-21.8 -45.8,-44c-2.8,-8.3 -2.7,-28.1 0.3,-37.5c6.5,-20.4 23.4,-36.7 44.8,-43.1c9.5,-2.9 25.7,-2.4 36.1,1c34.8,11.3 53.4,48.9 41.1,82.9c-3.6,9.8 -7.3,15.5 -15.6,23.7c-16.3,16.2 -39.3,22.6 -60.9,17l0,0zm9.1,-66.1c4.9,-1.3 11.5,-7.3 13.8,-12.4c4.8,-10.4 0.7,-23.4 -9.1,-29.2c-11.5,-7 -26.1,-3.1 -32.2,8.6c-9.8,18.8 6.8,38.8 27.5,33l0,0z" transform = "matrix(0.9999999,0,0,0.9999999,4.508742,0)" vector-effect="non-scaling-stroke" pen = "1,1" />
<path style="fill:#41693D;stroke:none; stroke-width:1" d="m503.5,825.3c-51.5,-39 -91.2,-73.9 -143.6,-126.2c-44,-44.1 -72.6,-75.7 -105.2,-116.5c-105.4,-131.9 -171.4,-264.7 -186.2,-374.6c-2.2,-16.5 -3,-46.1 -1.6,-60.5c4.8,-49.3 23.3,-86.7 55.6,-112.6c22,-17.7 49.7,-28.5 84.5,-33c12.2,-1.6 46.3,-1.6 60.5,0c40.5,4.6 89.4,17.5 133.3,35.3l13.3,5.4l12.2,-2.3c132.5,-24.4 272.6,5 383.7,80.5c20.1,13.6 29.2,20.7 27.2,21c-1,0.2 -14.9,-4 -30.9,-9.3l-29.1,-9.5l-40.8,0l-40.9,0l10,-6.7c8.4,-5.6 9.6,-6.7 8,-7.4c-1.1,-0.4 -13.2,-3.1 -26.9,-5.9l-24.9,-5.1l-31.6,5.7c-29.8,5.3 -33.3,6.2 -61.1,15.1c-29.8,9.5 -31.9,10.4 -33.6,15.6c-0.4,1.3 1,3.5 4.8,7.5c3,3.1 6.9,7.9 8.8,10.6c3.1,4.7 3.2,5 1.5,6.3c-1.1,0.7 -2.2,1.3 -2.6,1.3c-0.4,0 -4.4,-5.1 -9,-11.3c-5.4,-7.3 -8.6,-12.7 -9.3,-15.4l-0.9,-4.3l-6.4,-0.2c-13.5,-0.4 -12.1,-0.9 -15.5,5.4l-3.1,5.8l2.9,4.6c2.4,4 4,5.2 10.2,7.9c6.9,3 7.2,3.2 5.4,4.9c-1.8,1.5 -2.7,1.4 -15.8,-3.3c-7.6,-2.6 -16.8,-5.2 -20.4,-5.6c-3.6,-0.4 -9.6,-1.8 -13.3,-3.1c-6.5,-2.3 -8.7,-2.4 -8.7,-0.5c0,0.5 2.7,1.9 5.9,3.1c3.3,1.2 6.9,3.3 8.2,4.6c2.1,2.2 2.2,2.6 0.7,4c-1.5,1.5 -1.9,1.5 -4.8,-0.6c-3.1,-2.2 -3.2,-2.2 -7,-0.5c-3.1,1.4 -4.4,1.5 -7.3,0.6c-2.1,-0.7 -4.3,-0.8 -5.8,-0.3c-1.3,0.5 -3.6,1.2 -5.1,1.6c-2.5,0.6 -2.8,0.4 -2.8,-1.9c0,-1.4 -0.1,-2.5 -0.2,-2.5c-0.2,0 -7,2.2 -15.3,4.8c-14.3,4.6 -15,5 -15.5,7.7c-0.8,4.5 -4.8,5.3 -10,2c-4.1,-2.6 -4.5,-4.5 -1,-4.5c3,0 3.2,-1.7 0.5,-3.8c-2.5,-2 -14,-4.1 -15.2,-2.8c-0.3,0.3 0.6,1.5 2.1,2.7c2.2,1.7 2.6,2.7 2.1,4.9c-0.5,2.2 -0.2,3 1.3,3.4c1.7,0.6 3.9,6.2 2.8,7.3c-0.2,0.2 -2.7,-0.5 -5.7,-1.6l-5.3,-2l-5.3,3c-6.3,3.6 -7,4.5 -4.9,6.8c2.2,2.4 2,2.8 -1.2,3.6c-1.9,0.4 -5,-0.2 -8.6,-1.5c-4.5,-1.7 -6,-1.9 -7.1,-1c-1.3,1.1 -1.1,1.5 0.9,3.1c1.3,1.1 3.3,1.9 4.4,1.9c2.5,0 3.7,2.7 1.4,3.2c-5.9,1.5 -18.4,-6.3 -19.5,-12.2c-0.5,-2.1 -1.8,-3.7 -4.2,-5.1c-3.6,-2.2 -4.3,-3.9 -0.8,-2.1c1,0.5 6.5,1.5 12.3,2.1c18.9,2 18.2,2 22.3,-0.7c4.1,-2.7 4.2,-3 2.6,-6.6c-1,-2.1 -4,-3.5 -18.8,-8.6c-9.7,-3.4 -26.4,-8.6 -37.2,-11.6l-19.5,-5.4l-20.5,2.5c-19.5,2.4 -20.9,2.7 -31.1,7.1c-10.6,4.6 -10.8,4.7 -11.8,8.8c-0.6,2.2 -1.2,4.4 -1.3,4.8c-0.1,0.3 -6.7,6.9 -14.7,14.5c-13.6,13.1 -15.2,14.3 -25.1,19c-9.5,4.5 -11,5.6 -13.3,9.5c-2.2,3.8 -2.6,5.7 -2.6,11.9c0.1,7.2 0.2,7.5 3.9,11.7c3.4,3.7 4.4,4.2 8.2,4.2c6.3,0 17.4,-5.4 19,-9.2l1.2,-3.1l2.8,7.1c1.5,3.9 4.3,9 6.2,11.4c2.4,3 3.6,5.3 3.5,7.3c-0.1,1.7 0.2,4 0.6,5.3c1,3 5.6,2.9 9.4,-0.3c1.6,-1.3 4.7,-2.7 6.9,-3.1l4.1,-0.6l1.2,-7.8c0.7,-4.2 1.5,-8.1 1.8,-8.7c0.4,-0.5 3.1,-2.3 5.9,-3.9c4.7,-2.6 5.3,-3.3 5.3,-6.1c0,-2.7 -0.7,-3.7 -4.7,-6.4c-2.7,-1.8 -5,-3.4 -5.2,-3.5c-0.2,-0.2 1,-3.5 2.5,-7.5c2.6,-6.6 3.2,-7.4 7.4,-9.3c7,-3.3 11,-6.5 11,-8.9c0,-1.2 1.6,-3.9 3.5,-5.9c3.5,-3.7 3.5,-3.8 9.6,-3.1c6.9,0.7 10.5,3 7.3,4.8c-1,0.5 -3.8,2.9 -6.3,5.1c-2.6,2.3 -6.1,4.9 -7.9,5.8c-4.8,2.5 -5.6,5.5 -3.6,14.2c1.5,7 1.8,7.4 6.4,10.4l4.9,3.1l9.3,-2.5c9.7,-2.6 20.5,-3.6 22.9,-2c0.8,0.5 3,1.4 4.9,2l3.5,1.2l-3,0.1c-1.6,0.1 -4.1,0.8 -5.5,1.6c-1.7,1 -5.6,1.4 -11.9,1.5c-7.5,0 -15.9,1.2 -17.9,2.6c-0.2,0.1 0,1.3 0.3,2.7c0.4,1.5 1.9,3 3.7,3.8c2.3,0.9 2.8,1.7 2.4,3.3c-0.3,1.2 -0.6,2.9 -0.6,3.9c0,2.4 -3.5,2.2 -7.8,-0.5l-3.5,-2.1l-4,4.2c-3.9,4.3 -4,4.4 -3.3,10.2l0.6,5.9l-3.4,0c-2.5,0 -3.5,0.6 -4.4,2.5c-1.4,3 -2.7,3.1 -6.7,0.7c-3,-1.9 -3.1,-1.8 -13.4,1.6c-10.2,3.4 -10.5,3.5 -15.2,1.9c-4.4,-1.3 -5.4,-1.3 -10.1,0c-4.8,1.4 -5.4,1.4 -8.6,-0.3c-1.8,-1 -3.8,-2.6 -4.3,-3.6c-0.8,-1.5 -0.6,-1.8 1.6,-1.8c2.8,0 3.3,-1.8 1.3,-5c-1,-1.5 -0.9,-2.2 0.5,-3.8c1.5,-1.6 1.5,-2 0.1,-3.3c-1.1,-1.1 -1.2,-2.2 -0.6,-4c0.9,-2.5 0.5,-5.9 -0.6,-5.9c-0.4,0 -3.2,1.3 -6.2,2.8c-5.2,2.6 -5.5,3 -6.8,8.2c-1.2,4.9 -1.2,6 0.3,10.2c2.9,8.1 2.3,9 -8,11.3c-4.9,1.2 -10.2,2.4 -11.6,2.8c-2.1,0.5 -3.1,1.9 -4.8,6.6l-2.2,6l-7.9,2.6c-6.7,2.2 -8,3 -8,4.8c0,3.8 -1.4,4.7 -10.4,7.2l-8.6,2.4l-1.4,-3.2c-0.7,-1.8 -1.2,-3.3 -1.1,-3.5c0.1,-0.1 3.1,-0.7 6.6,-1.3c9.5,-1.5 12.5,-3.8 14.8,-11.2l1.9,-6.2l-4.3,-2.2c-3.6,-1.9 -5.1,-3.7 -9.6,-11.7c-3.9,-6.9 -6.3,-10 -8.6,-11.3c-1.8,-1 -3.3,-2 -3.3,-2.2c0,-0.2 1.4,-2.6 3.2,-5.4c3.3,-5.2 2.9,-6.7 -1.9,-6.7c-2.5,0 -3.9,-1.5 -2.3,-2.5c0.5,-0.3 1,-1.8 1,-3.2c0,-2.5 -0.1,-2.5 -5.7,-1.8c-3.6,0.4 -6.6,1.4 -8,2.7l-2.1,2l-1,-4.9c-0.8,-3.5 -0.7,-5.2 0.1,-6.3c12.2,-15.8 43.1,-47.5 62.7,-64.2c52.3,-44.7 112.6,-78.9 175,-99.4c8,-2.6 14.9,-5 15.3,-5.4c1.6,-1.4 -27.3,-10.8 -52.5,-17c-48,-11.9 -92.2,-14.3 -126.7,-6.8c-47.3,10.1 -79.7,39.1 -93.9,83.8c-5.5,17.4 -7.6,32.8 -7.5,56.5c0,60.9 19.9,129.2 61.7,212.2c75.2,149.4 213.9,309.8 369.4,427.1l12.2,9.3l-2.6,3.5c-1.5,1.9 -4.3,6.6 -6.3,10.4l-3.7,6.9l-17.9,-13.6l0,0l0,0z" transform = "matrix(0.9999999,0,0,0.9999999,4.508742,0)" vector-effect="non-scaling-stroke" pen = "1,1" />
<path style="fill:#41693D;stroke:none; stroke-width:1" d="m244,443.8c-16.2,-7.1 -29.7,-13.2 -29.9,-13.4c-0.3,-0.3 0.7,-4.1 2.2,-8.6l2.6,-8.1l-2.8,-3.6c-1.6,-2 -4.3,-4.9 -6,-6.5l-3,-2.9l-9.3,1c-6.7,0.7 -9.6,0.7 -10.5,-0.1c-0.6,-0.6 -5.7,-9.9 -11.2,-20.7c-8.1,-15.6 -10.1,-20.4 -10.1,-23.8c0,-3.7 0.3,-4.3 3.3,-5.7c3.1,-1.5 3.8,-1.5 10.2,0.4l6.8,2.1l8,-5.7c4.4,-3.1 8.5,-5.6 9.1,-5.4c7.2,1.7 9.6,3.6 16.3,12.3c6.2,8.2 7.9,9.7 18.1,16.1c9.8,6.2 11.4,7.6 13.2,11.5c1.8,4.1 1.8,4.6 0.4,6.8c-1.8,2.7 -6.6,3.9 -16.4,3.9c-9.2,0.1 -9.1,2 0.3,7.4c4,2.3 8.2,4.2 9.4,4.2c2.1,0 3.8,-2.4 2.7,-4.1c-0.3,-0.5 -0.3,-2.2 0.1,-3.8c0.5,-2.2 1.1,-2.8 2.5,-2.4c2.4,0.6 8.9,-6.3 9,-9.6c0,-1.4 -0.7,-3.2 -1.6,-4.2c-1.2,-1.4 -1.3,-2.2 -0.4,-3.8c1.4,-2.7 4.4,-2.7 7,-0.1c2.5,2.5 4,2.5 4,0.1c0,-1.4 -2.4,-3.4 -8,-6.8c-5.2,-3.1 -8,-5.4 -8,-6.5c0,-1.2 -0.8,-1.8 -2.1,-1.8c-1.2,0 -4.3,-1.2 -6.9,-2.7c-3.7,-2.1 -5,-3.5 -5.9,-6.4c-0.8,-2.7 -2.5,-4.7 -6.1,-7.3c-4,-2.9 -5,-4.2 -5,-6.5c0,-2.3 0.8,-3.4 3.4,-5.1l3.5,-2.1l4.6,2.4c2.5,1.2 11.8,8.3 20.6,15.7l15.9,13.5l0,5.8c0,5.4 0.3,6.2 5.8,13.7c4.9,6.8 6.1,8 8.6,8l2.9,0l-2.2,2.4l-2.3,2.5l4.2,5c2.5,2.9 5.2,5.1 6.3,5.1c1.7,0 1.9,-0.6 1.5,-5l-0.3,-5l4.3,0c4.1,0 4.2,-0.1 3.6,-2.7c-1,-4 -2.2,-6.2 -6.6,-11.8l-3.9,-4.9l7.1,-3.3c6.7,-3.1 7.5,-3.2 11.9,-2.2c6.1,1.5 6.5,2.1 5.1,6.3c-1.1,3.4 -1,3.9 1.8,7.4c1.7,2.1 3.5,6.1 4.2,9.4c0.7,3.1 1.6,6.1 1.9,6.6c1.1,1.6 17.1,8.2 20.1,8.2c2.1,0 3,-0.6 3.7,-2.4l0.8,-2.4l6.4,2.9c8.4,3.8 12.6,3.8 16.6,-0.1c2.7,-2.6 3.5,-2.9 5.8,-2.1c1.9,0.8 2.8,0.6 3.8,-0.5c2.2,-2.7 3.1,-0.9 3.5,7.6c0.3,4.7 0.6,9 0.6,9.6c0.1,0.6 -2.2,7 -5.1,14.2l-5.3,13.1l-4.6,0.7c-3.2,0.5 -5.9,0.2 -9.3,-1c-3.5,-1.3 -6.2,-1.6 -10.1,-1.1c-4.4,0.5 -10.1,-0.4 -32.8,-5.5c-15.1,-3.3 -28.2,-6.3 -29,-6.5c-1.1,-0.4 -4.1,3 -9.5,10.5c-4.3,6.1 -8.3,11 -8.9,10.9c-0.6,0 -14.4,-5.9 -30.6,-13.1z" transform = "matrix(0.9999999,0,0,0.9999999,4.508742,0)" vector-effect="non-scaling-stroke" pen = "1,1" />
<path style="fill:#41693D;stroke:none; stroke-width:1" d="m1007.7,387.2l-6.8,-6.8l2.2,-5.2c1.2,-2.9 2.5,-5.2 2.8,-5.2c0.4,0 2.6,5.4 4.9,12c2.2,6.6 4,12 3.9,12c-0.1,0 -3.3,-3.1 -7,-6.8l0,0z" transform = "matrix(0.9999999,0,0,0.9999999,4.508742,0)" vector-effect="non-scaling-stroke" pen = "1,1" />
<path style="fill:#41693D;stroke:none; stroke-width:1" d="m129,270.4c0,-0.5 -0.7,-3 -1.5,-5.6c-1.2,-4 -1.2,-4.8 0,-4.8c1.4,0 3.3,9.6 2.1,10.7c-0.3,0.4 -0.6,0.2 -0.6,-0.3l0,0z" transform = "matrix(0.9999999,0,0,0.9999999,4.508742,0)" vector-effect="non-scaling-stroke" pen = "1,1" />
</g>
<g id="group_2">
<path style="fill:#8A8C8F;stroke:none; stroke-width:1" d="m3103.5,888c-30.4,-1.2 -51.2,-3.6 -87.5,-10c-3.6,-0.6 -9.9,-2.1 -14,-3.2c-4.1,-1.1 -8.7,-2.3 -10.3,-2.6c-1.5,-0.2 -3,-0.8 -3.3,-1.3c-0.3,-0.5 -1.3,-0.9 -2.3,-0.9c-1.8,0 -14,-3.5 -17.6,-5c-1.1,-0.5 -5.4,-1.8 -9.5,-3.1c-4.1,-1.2 -7.9,-2.5 -8.4,-3c-0.6,-0.5 -2,-0.9 -3.2,-0.9c-1.3,0 -2.5,-0.4 -2.8,-0.9c-0.3,-0.5 -1.8,-1.2 -3.3,-1.5c-4,-1 -24.6,-8.8 -25.7,-9.8c-0.6,-0.4 -1.6,-0.8 -2.4,-0.8c-0.8,0 -2.8,-0.6 -4.5,-1.4c-6.9,-3.1 -14.5,-6.3 -20.5,-8.6c-4.7,-1.9 -6.1,-2.8 -5.6,-4c0.4,-0.8 1,-3.1 1.4,-5c1.5,-6.6 3.8,-17.5 5,-23.5c0.6,-3.3 1.6,-6.9 2,-8c0.5,-1.1 1.4,-4.7 2,-8c0.6,-3.3 1.7,-8.9 2.5,-12.5c0.8,-3.6 1.9,-9.2 2.5,-12.5c0.6,-3.3 1.5,-6.9 2,-8c0.4,-1.1 1.6,-5.6 2.5,-10c0.9,-4.4 2.3,-10.7 3.1,-14.1c0.8,-3.3 1.4,-6.8 1.4,-7.7c0,-1 0.4,-2.5 0.9,-3.5c0.5,-0.9 1.7,-5.5 2.6,-10.2c0.9,-4.7 2,-9.8 2.5,-11.5c0.5,-1.6 1.2,-4.8 1.5,-7c1.2,-7.3 1.4,-7.6 4.3,-6.9c1.5,0.4 3.2,1 3.7,1.4c0.6,0.4 3.9,1.7 7.5,3c3.6,1.3 8.3,3.1 10.5,4.1c2.2,0.9 6.9,2.7 10.5,3.9c3.6,1.2 7.9,2.9 9.7,3.6c1.7,0.8 3.8,1.4 4.6,1.4c0.9,0 1.8,0.4 2.1,0.9c0.3,0.5 2.2,1.2 4.2,1.6c2,0.3 4.4,1 5.3,1.4c0.9,0.5 4.3,1.7 7.6,2.7c3.3,1 6.7,2.1 7.5,2.6c0.8,0.4 4.9,1.7 9,2.8c4.1,1.2 8.4,2.5 9.5,2.9c3.8,1.6 14.8,4.4 34.5,9c4.7,1.1 16.8,3 27,4.2c26.4,3.2 73.1,3.2 96.5,0.1c8.8,-1.2 18.5,-2.9 21.5,-3.8c3,-0.8 7.1,-1.9 9.1,-2.4c5.5,-1.4 15.7,-6 21.5,-9.7c10.8,-6.8 21.8,-22.5 24.5,-35c0.5,-2.7 1.4,-6.6 1.9,-8.8c0.5,-2.2 0.9,-10.9 1,-19.4c0,-24 -3.9,-37.2 -14.3,-48c-5.7,-5.8 -15.7,-12.7 -23.4,-16.1c-2.6,-1.2 -5.7,-2.5 -6.8,-3c-7.4,-3.4 -27.6,-9.1 -44,-12.6c-3.8,-0.8 -8.8,-1.9 -11,-2.4c-2.2,-0.5 -7.6,-1.7 -12,-2.5c-7.5,-1.5 -11.7,-2.2 -32.5,-5.9c-12.5,-2.2 -22.6,-4.2 -30.5,-6.1c-3.8,-0.9 -8.6,-2 -10.5,-2.5c-10.3,-2.4 -30.1,-8.7 -46,-14.6c-32.7,-12.3 -59.6,-30.9 -80.7,-55.9c-14.4,-17 -28.4,-44 -35.7,-69c-5.1,-17 -5.6,-19.4 -8.2,-34.5c-8,-47.2 -8,-106.4 0.1,-147.5c0.8,-4.4 2,-10.4 2.6,-13.4c0.5,-2.9 1.4,-6.1 1.8,-7c0.5,-0.9 1.2,-3.5 1.6,-5.8c0.4,-2.4 1.1,-4.5 1.6,-4.9c0.5,-0.3 0.9,-1.3 0.9,-2.2c0,-1.5 4.3,-13.8 6.9,-19.7c21,-47.6 49.9,-80.7 92.5,-105.9c4.2,-2.5 7.9,-4.6 8.2,-4.6c0.2,0 3.2,-1.4 6.6,-3.1c10.4,-5.1 31.2,-12.7 48.8,-17.9c5,-1.5 262,-0.8 267.5,0.7c2.2,0.6 6.9,1.8 10.5,2.6c8.5,2 21,5.6 23.2,6.8c1,0.5 2.5,0.9 3.3,0.9c1.6,0 13.1,3.6 15.5,4.9c0.9,0.5 3,1.2 4.8,1.5c1.7,0.4 3.4,1.2 3.7,1.7c0.4,0.5 1.3,0.9 2.2,0.9c0.8,0 2.9,0.6 4.6,1.4c1.8,0.8 4.6,1.8 6.2,2.4c3.7,1.1 3.8,-2.4 -1.4,38.2c-1,7.8 -1.2,9.1 -3.7,30.5c-0.9,7.2 -2,15.5 -2.4,18.5c-1.2,7.5 -3.7,28.4 -5,40.5c-0.5,5.5 -1.4,12.3 -2,15c-0.5,2.8 -1.2,8 -1.6,11.7c-0.6,6.8 -0.6,6.8 -3.2,6.2c-1.5,-0.4 -3.1,-1 -3.7,-1.4c-0.5,-0.4 -2.7,-1.1 -4.9,-1.4c-2.1,-0.4 -4.6,-1.1 -5.5,-1.6c-0.9,-0.4 -4.5,-1.6 -8.1,-2.5c-12.5,-3.3 -17.5,-4.7 -19.5,-5.5c-1.1,-0.5 -8.3,-2.2 -16,-4c-7.7,-1.7 -15.8,-3.5 -18,-4.1c-2.2,-0.5 -7.4,-1.4 -11.5,-2c-46.1,-6.3 -53.5,-6.9 -91,-6.9c-37.4,0 -55.4,1.6 -75.9,6.6c-19.1,4.7 -33.8,14.8 -41.2,28.4c-6.2,11.3 -8.2,20.8 -8.3,39.5c0,24.7 3.4,37.7 13.3,50.2c11.3,14.3 36.3,25.3 73.6,32.4c3.3,0.6 7.8,1.5 10,2c8.1,1.8 28.8,5.2 47.5,7.9c4.1,0.6 8.2,1.4 9,1.7c1.4,0.6 6.7,1.7 20.4,4.3c3.2,0.6 6.7,1.5 7.7,2c1,0.6 2.7,1 3.8,1c1.1,0 4,0.6 6.3,1.4c2.4,0.7 7,2.1 10.3,3.1c9.5,2.7 29.8,9.5 31.7,10.6c1,0.5 2.2,0.9 2.8,0.9c0.6,0 3.8,1.2 7.3,2.7c38.3,16.8 67.9,41 86.6,70.8c8.2,13 9.8,16 13.4,24.5c0.9,1.9 2.9,6.6 4.6,10.3c1.7,3.8 3.1,7.2 3.1,7.7c0,0.5 1.1,4.4 2.4,8.7c4.4,14 5.3,17.7 7,27.8c0.9,5.5 2.1,12 2.6,14.5c3.1,14.9 3.8,85.8 1,107c-3.2,25 -6.3,41.8 -10.1,54.5c-5.6,18.6 -6.3,21.1 -7.1,22c-0.4,0.5 -0.8,1.5 -0.8,2.3c0,1.6 -1.3,4.7 -7.8,18.2c-9.1,19.1 -21.1,35.9 -36.6,51.5c-18.8,18.9 -37.9,31.8 -65.6,44.3c-3.6,1.6 -8.1,3.6 -10.2,4.5c-2,1 -4.2,1.7 -5,1.7c-0.8,0 -1.8,0.4 -2.4,0.9c-0.5,0.5 -4.3,1.9 -8.4,3.1c-4.1,1.2 -9.5,2.9 -12,3.7c-17.3,5.6 -51.5,11.8 -79,14.3c-5.8,0.5 -11.4,1.1 -12.5,1.4c-4.2,0.9 -67.8,1.3 -86,0.6l0,0l0,0z" transform = "matrix(0.9999999,0,0,0.9999999,0,67.63113)" vector-effect="non-scaling-stroke" pen = "1,1" />
<path style="fill:#8A8C8F;stroke:none; stroke-width:1" d="m1274,870.2l-84.5,-0.2l0.3,-412l0.2,-412l135.4,0l135.4,0l1.2,4.7c1,4.5 2.9,12.6 5,21.8c0.5,2.2 1.6,6.9 2.4,10.5c0.8,3.6 2.2,9.9 3.2,14c3.2,14.9 4.3,19.6 5.9,26.5c3,12.7 3.3,13.9 4.9,22c1.5,7.3 2.7,12.1 7.1,29.7c0.8,3.2 1.5,6.9 1.5,8.2c0,1.4 0.4,2.7 0.9,3c0.5,0.3 1.2,3.1 1.6,6.2c0.4,3.2 1.1,6.4 1.5,7.3c0.5,0.9 1.4,4.3 2,7.6c2.6,14.6 3.2,17.1 4,19c0.5,1.1 1.1,3.4 1.5,5c0.3,1.7 1.2,5.9 2,9.5c0.8,3.6 1.9,9.2 2.5,12.5c0.6,3.3 1.4,6.7 1.8,7.5c0.3,0.8 1.2,4.2 1.9,7.5c1.3,5.7 2.2,9.8 5.7,26c0.8,3.9 2.1,9.5 2.9,12.5c0.8,3 2.2,9.1 3.2,13.5c1,4.4 2.4,10.2 3.1,12.9c0.8,2.7 1.4,6 1.4,7.3c0,1.3 0.4,3.1 1,4.1c0.5,0.9 1.4,4.2 1.9,7.2c0.6,3 1.7,8.5 2.6,12.3c0.8,3.7 2.2,9.7 3,13.5c0.9,3.7 2.2,9.6 3,13.2c2,9.1 4.4,19.9 5.5,24c0.5,1.9 1.6,6.9 2.5,11c1,4.1 2.4,10.4 3.1,14c0.8,3.6 1.9,11 2.4,16.5c0.5,5.5 1.2,11 1.5,12.3c0.3,1.3 1,6.7 1.6,12c0.5,5.3 1.6,15.8 2.5,23.2c0.8,7.4 1.9,17.8 2.4,23c0.5,5.2 1.1,10.9 1.4,12.5c0.3,1.7 1.3,9.8 2.2,18c0.9,8.3 2,18.6 2.5,23c1,8.8 3.3,28.8 5.4,49c0.8,7.2 2.1,19.5 3,27.5c0.8,8 2,17.9 2.5,22c0.6,4.1 1.7,14 2.6,22c3,28.2 4.3,40.6 5.4,51.5c1.5,15.2 2.8,22.7 4,23.9c0.5,0.5 1.2,0.8 1.4,0.5c0.2,-0.2 0.9,-5.1 1.5,-10.9c0.6,-5.8 1.6,-12.7 2.1,-15.5c0.5,-2.7 1.4,-8.8 2,-13.5c1.7,-14.9 5.3,-42.3 8,-61c0.4,-3 1.5,-11.8 2.5,-19.5c2,-16.3 2.1,-16.7 3.5,-26.5c1.5,-10.6 3.7,-26.8 8.5,-64.5c0.8,-6 1.7,-12.6 2,-14.5c0.3,-1.9 1.2,-8.7 2.1,-15c0.8,-6.3 1.9,-14.4 2.5,-18c0.5,-3.6 1.4,-10.1 2,-14.5c0.6,-4.4 1.4,-10.7 1.9,-14c0.4,-3.3 1.5,-11.6 2.4,-18.5c1.9,-14.9 3.9,-27 6.1,-36.5c0.9,-3.8 2.1,-9.5 2.6,-12.5c0.6,-3 1.4,-6.4 1.9,-7.5c0.5,-1.1 1.2,-3.8 1.6,-6c0.4,-2.2 0.9,-4.4 1,-5c0.8,-2.3 2.6,-10.3 3.5,-15.5c0.5,-3 1.4,-6.2 1.8,-7c0.5,-0.9 1.2,-4 1.6,-7c0.4,-3 1,-5.9 1.4,-6.5c0.3,-0.5 1.1,-3.5 1.8,-6.5c0.6,-3 1.6,-7.3 2.1,-9.5c2.4,-9.8 4.3,-17.8 6.7,-28.5c1.4,-6.3 3.2,-14.2 4.1,-17.5c0.9,-3.3 2.2,-8.8 3,-12.2c0.8,-3.5 2,-9.1 2.8,-12.5c0.8,-3.5 2.1,-9.2 3,-12.8c0.8,-3.6 2.2,-9.6 3.1,-13.5c0.9,-3.8 2.3,-9.9 3.1,-13.5c0.8,-3.6 1.9,-8.1 2.4,-10c0.9,-3.2 2.8,-11.4 5,-21.5c0.5,-2.2 1.6,-6.7 2.5,-10c0.9,-3.3 2.3,-9.1 3.1,-13c1.6,-7.4 3.4,-15.2 5.7,-25c0.8,-3.3 2.4,-10.3 3.6,-15.5c1.2,-5.2 2.6,-10.8 3.1,-12.5c0.5,-1.6 1.2,-4.8 1.5,-7c0.4,-2.2 1,-4.9 1.5,-6c0.4,-1.1 1.4,-4.7 2,-8c2.8,-14 3.5,-17.1 4.1,-18c0.4,-0.5 1,-3.2 1.3,-6c0.4,-2.7 1.2,-6.6 1.8,-8.5c1.8,-6.4 2.6,-9.4 5.4,-21.7l2.8,-12.3l142.3,0l142.3,0l0,412.3l0,412.2l-106,0l-106.1,0l0.4,-94.5c0.3,-77.7 0.7,-97.9 2.1,-113.5c0.9,-10.4 2.3,-28.4 3.2,-40c2.3,-32.5 4.2,-56.8 5.3,-70.5c1.6,-19.5 2,-25.3 3.1,-43.5c0.5,-9.3 1.5,-20 2,-23.8c0.6,-3.7 1,-9.1 1,-12c0,-2.8 0.4,-7.7 0.9,-10.7c0.5,-3 1.2,-12 1.6,-20c0.3,-8 1,-17 1.5,-20c0.5,-3 1.1,-11.6 1.5,-19c0.3,-7.4 0.8,-14.2 1,-15c0.2,-0.8 1.1,-11.2 2,-23c0.9,-11.8 1.8,-23.5 2,-26c0.2,-2.5 0.6,-8.3 1,-13c1.8,-26.2 3.5,-48.9 3.9,-51.5c0.2,-1.6 0.7,-8.2 1,-14.5c0.4,-6.3 0.9,-12.6 1.1,-14c0.5,-2.5 1.3,-12.1 4,-50.7c0.8,-11.7 1.9,-25.2 2.5,-30c1.3,-11.8 1.3,-13.3 -0.5,-13.3c-0.8,0 -1.5,0.8 -1.5,1.8c0,1 -0.3,2.2 -0.7,2.6c-0.5,0.4 -1.3,4.2 -2,8.4c-1.4,9.2 -3,17.7 -3.8,21.2c-0.3,1.4 -1,4.5 -1.5,7c-3.2,16.9 -7.6,38.8 -9,45c-0.5,2.5 -1.4,7.2 -2,10.5c-0.6,3.3 -1.7,9.2 -2.5,13c-2.1,10 -6.9,35.1 -8.2,43c-0.2,1.7 -0.8,3.9 -1.3,5c-0.5,1.1 -1.3,5 -1.9,8.8c-0.6,3.7 -1.6,9.7 -2.2,13.5c-0.6,3.7 -1.3,7.4 -1.7,8.2c-0.3,0.8 -1.1,4.7 -1.8,8.5c-0.7,3.9 -1.7,9.3 -2.3,12c-0.6,2.8 -1.7,8.4 -2.5,12.5c-0.8,4.1 -2.2,11.1 -3.1,15.5c-2.8,13.9 -4.5,22.8 -5.5,28c-0.5,2.8 -1.6,8.4 -2.5,12.5c-1.6,7.1 -2.9,14.3 -5.9,31c-0.8,4.1 -2.1,11.1 -3.1,15.5c-0.9,4.4 -2.1,10 -2.6,12.5c-0.8,4.4 -2.5,12.9 -5.3,27.3c-0.8,3.9 -1.9,9.7 -2.5,12.7c-0.6,3 -1.5,7.3 -2,9.5c-2.4,9.8 -6.5,27.8 -8.7,38c-0.9,4.4 -2.3,10.5 -3.1,13.5c-0.8,3 -2.1,8.5 -2.9,12.3c-1.9,9.3 -4,19 -5.9,27c-0.8,3.7 -2.2,9.7 -3,13.5c-0.9,3.7 -2,9 -2.5,11.7c-0.5,2.8 -1.3,6.6 -1.9,8.5c-1.8,6.6 -3,11.5 -4.6,19c-0.8,4.1 -2.2,10.3 -3,13.8c-3.1,12.9 -4.5,18.9 -6,26.2c-0.9,4.1 -2.7,12 -4,17.5c-1.3,5.5 -3.4,14.5 -4.6,20c-1.2,5.5 -2.8,12.7 -3.6,16c-0.8,3.3 -2.1,9 -2.9,12.8c-0.8,3.7 -2.1,9.7 -2.9,13.5c-0.8,3.7 -1.9,9.4 -2.5,12.7c-0.6,3.3 -1.5,6.9 -2,8c-0.4,1.1 -1.5,5.6 -2.4,10c-0.9,4.4 -2.1,9.4 -2.6,11c-0.5,1.7 -1.2,4.8 -1.5,7c-0.4,2.2 -1,5.1 -1.5,6.5c-0.4,1.4 -1.3,5.1 -2,8.3l-1.1,5.7l-109.5,0l-109.4,0l-0.4,-2.2c-0.3,-1.3 -1.2,-5.2 -2,-8.8c-0.8,-3.6 -2,-9 -2.6,-12c-2,-9.3 -3.8,-17.2 -5.5,-24.5c-2.9,-12.7 -3.6,-15.9 -4.6,-21.5c-0.6,-3 -1.4,-6.4 -1.9,-7.5c-0.4,-1.1 -1.6,-5.8 -2.5,-10.5c-1,-4.7 -2.4,-11 -3.1,-14c-0.8,-3 -1.4,-6.2 -1.4,-7.2c0,-1 -0.4,-2.6 -1,-3.6c-0.5,-0.9 -1.4,-4.4 -2,-7.7c-1.6,-8.8 -5.8,-27.6 -8,-36.5c-1,-3.7 -5,-21.6 -7.7,-34c-0.3,-1.4 -1.8,-8 -3.4,-14.8c-1.6,-6.7 -2.9,-13.4 -2.9,-14.7c0,-1.3 -0.4,-2.6 -0.9,-2.9c-0.5,-0.3 -1.2,-3.2 -1.6,-6.3c-0.4,-3.2 -1,-6.2 -1.5,-6.8c-0.4,-0.5 -1.1,-3.2 -1.4,-6c-0.4,-2.7 -1.1,-6.3 -1.6,-8c-1.7,-5.8 -3.2,-11.8 -4,-16.4c-0.5,-2.5 -1.6,-7.7 -2.5,-11.6c-0.9,-3.8 -2.2,-9.9 -3,-13.5c-0.8,-3.6 -2.1,-9.6 -3,-13.5c-0.9,-3.8 -2.2,-9.9 -3,-13.5c-0.8,-3.6 -1.8,-8.3 -2.4,-10.5c-1.3,-5.4 -4.7,-22.1 -6.6,-32.5c-0.9,-4.7 -2,-10.1 -2.5,-12c-0.5,-1.9 -1.4,-6.4 -2,-10c-0.6,-3.6 -1.7,-10.1 -2.6,-14.5c-0.8,-4.4 -2.1,-11.4 -2.9,-15.5c-0.8,-4.1 -2.1,-11.1 -2.9,-15.5c-0.9,-4.4 -2,-10.9 -2.6,-14.5c-0.6,-3.6 -1.3,-7.3 -1.6,-8.2c-0.3,-0.9 -0.9,-4.1 -1.5,-7c-0.5,-2.9 -1.6,-8.7 -2.4,-12.8c-0.8,-4.1 -2.1,-11.3 -3,-16c-0.8,-4.7 -2.1,-11.9 -2.9,-16c-0.8,-4.1 -2.4,-12.4 -3.5,-18.5c-1.2,-6 -2.6,-12.6 -3.1,-14.6c-0.6,-2 -1,-5 -1,-6.6c0,-1.6 -0.3,-3.3 -0.7,-3.6c-0.3,-0.4 -0.7,-1.7 -0.8,-3c-0.2,-2.1 -2.6,-14.8 -4.7,-24.7c-0.5,-2.5 -1.5,-7.9 -2.2,-12c-0.7,-4.1 -1.5,-8.2 -1.9,-9c-0.3,-0.8 -1,-4.6 -1.6,-8.5c-0.9,-6.3 -2,-12.1 -4.9,-27c-2.4,-12.1 -4.4,-22.6 -5.8,-30.5c-2.3,-12.3 -4,-21.3 -5.9,-31c-0.9,-4.7 -1.9,-10.3 -2.1,-12.5c-0.3,-2.2 -1,-4.9 -1.4,-6c-0.5,-1.1 -1,-3.1 -1.2,-4.5c-0.6,-5.3 -2.3,-1.7 -2.2,4.8c0.1,7.5 3.1,51 3.9,55.7c0.2,1.7 0.7,9.3 1,17c0.4,7.7 1,16.2 1.6,18.8c0.5,2.6 0.9,8 0.9,12c0,4 0.4,11.9 1,17.7c1.1,11.9 2.4,29 4.5,59.8c0.8,11.7 1.6,21.6 1.8,22c0.3,0.4 0.8,8.8 1.2,18.7c0.4,9.9 1,19.8 1.5,22c0.5,2.2 1.1,11.4 1.5,20.5c0.3,9.1 1,19 1.5,22c0.5,3 1.2,13.2 1.6,22.5c0.3,9.4 0.8,17.3 1,17.6c0.2,0.4 0.8,6.9 1.4,14.5c0.6,7.7 1.2,15.7 1.4,17.9c0.3,2.2 0.7,9.9 1.1,17c0.3,7.2 1,16.2 1.5,20c0.5,3.9 1.1,12.9 1.4,20c0.6,13.4 1.9,31.4 3.7,51.5c3.9,45.3 4.2,53.6 4.6,136.5c0.2,45.7 0.2,88.4 0.1,95l-0.3,12l-84.5,-0.3l0,0l0,0z" transform = "matrix(0.9999999,0,0,0.9999999,0,67.63113)" vector-effect="non-scaling-stroke" pen = "1,1" />
<path style="fill:#8A8C8F;stroke:none; stroke-width:1" d="m2666.5,870.2l-111,-0.3l-7.1,-14.2c-6.6,-13.2 -16.1,-31.8 -44.7,-87.7c-6.4,-12.4 -17.1,-33.5 -23.9,-47c-6.8,-13.5 -12.6,-24.7 -12.9,-25c-0.4,-0.3 -2.5,-4.1 -4.6,-8.5c-2.2,-4.4 -9.9,-19.5 -17,-33.5c-7.2,-14 -18,-35.2 -24,-47c-12.6,-24.5 -30.3,-59 -32.7,-63.5c-0.9,-1.6 -1.6,-3.5 -1.6,-4.2c0,-0.6 -0.3,-1.3 -0.7,-1.5c-1.7,-0.7 -20.2,-38.9 -23.2,-47.8c-1.8,-5.2 -3.6,-10.2 -4.1,-11c-0.4,-0.9 -1.1,-3.1 -1.5,-5c-0.4,-1.9 -1.1,-4.1 -1.6,-5c-0.4,-0.8 -1.7,-4.4 -2.9,-8c-1.1,-3.6 -2.5,-7.4 -2.9,-8.5c-0.5,-1.1 -2.1,-5.6 -3.5,-10c-1.4,-4.4 -4.4,-13.2 -6.7,-19.5c-2.3,-6.3 -4.4,-12.6 -4.6,-14c-0.3,-1.4 -0.9,-2.9 -1.3,-3.5c-0.4,-0.5 -1.8,-4.4 -3,-8.5c-1.3,-4.1 -2.7,-7.9 -3.2,-8.4c-0.4,-0.6 -0.8,-1.9 -0.8,-2.9c0,-1 -0.6,-3.3 -1.4,-5c-0.8,-1.8 -2.8,-7.5 -4.6,-12.7c-1.7,-5.2 -3.5,-10.2 -3.9,-11c-0.5,-0.9 -1.2,-3.1 -1.6,-5c-0.4,-1.9 -1.1,-3.9 -1.5,-4.5c-0.4,-0.5 -1.1,-2.6 -1.5,-4.5c-0.4,-1.9 -1,-3.9 -1.4,-4.5c-0.4,-0.5 -2.2,-5.5 -4,-11c-1.8,-5.5 -3.7,-10.9 -4.1,-12c-0.5,-1.1 -2.3,-6.3 -4,-11.5c-1.7,-5.2 -3.4,-10.2 -3.9,-11c-0.5,-0.9 -1.2,-3.1 -1.6,-5c-0.4,-1.9 -1.1,-3.9 -1.5,-4.5c-0.4,-0.5 -1.1,-2.6 -1.5,-4.5c-0.4,-1.9 -1.1,-3.9 -1.5,-4.5c-0.4,-0.5 -1.1,-2.6 -1.5,-4.5c-0.4,-1.9 -1.1,-4.1 -1.5,-5c-1.7,-3.4 -3,-6.8 -5,-13.5c-1.2,-3.8 -2.6,-7.9 -3,-9c-0.5,-1.1 -1.9,-5.1 -3.1,-9c-3.2,-10.3 -4.9,-13.9 -6.1,-12.7c-0.7,0.7 -0.3,5.4 1,14.4c1.2,7.3 2.4,15.1 2.7,17.3c0.3,2.2 1.2,8.7 2,14.5c0.8,5.8 1.9,13 2.4,16c0.5,3 1.7,10.7 2.5,17c0.9,6.3 1.8,12.9 2.1,14.5c0.2,1.7 1,6.6 1.6,11c0.6,4.4 1.7,12.3 2.4,17.5c0.8,5.2 2.1,14.5 2.9,20.5c1.4,10.2 3.7,25.9 5.6,38c0.4,2.8 1.5,10.4 2.5,17c0.9,6.6 2.1,14.5 2.5,17.5c0.5,3 1.6,10.7 2.4,17c0.8,6.3 2.3,16 3.1,21.5c0.9,5.5 2.3,14.5 3,20c2.5,18 6.1,43.2 8.5,59.5c0.6,3.6 1.3,8.8 1.6,11.5c0.3,2.8 0.6,72.4 0.7,154.8l0.2,149.7l-90.7,0l-90.8,0l-0.2,-412l-0.3,-412l115,0.2l114.9,0.3l18.6,37c10.3,20.4 38,75.5 61.7,122.5c23.7,47 55.9,110.9 71.5,142c15.7,31.1 29.7,59.9 31.2,64c1.6,4.1 3.2,8.2 3.6,9c0.4,0.9 1.1,3.1 1.5,5c0.4,1.9 1,4 1.3,4.5c0.7,1.1 4.9,12.9 8.3,23c1.1,3.3 2.6,7.4 3.3,9c0.8,1.7 2.6,6.6 4.1,11c1.5,4.4 3.1,8.9 3.6,10c0.4,1.1 1.8,4.9 2.9,8.5c1.2,3.6 2.5,7.4 3,8.5c0.9,2.2 6.2,17.4 8.6,24.5c0.9,2.5 2,5.4 2.5,6.5c0.4,1.1 2.4,6.5 4.3,12c5.9,17.4 10.7,30.9 11.6,33c0.5,1.1 1.9,4.9 3.1,8.5c1.1,3.6 2.7,7.9 3.5,9.7c0.8,1.7 1.4,3.7 1.4,4.5c0,0.8 0.3,1.7 0.6,2.1c0.4,0.3 2.4,5.5 4.4,11.4c2.1,5.9 5.8,16.4 8.3,23.3c2.4,6.9 5.4,15.4 6.6,19c1.2,3.6 2.6,7.2 3,8c0.5,0.9 1.2,3 1.6,4.9c0.4,1.8 1.3,4.4 2.1,5.9c0.8,1.5 1.4,3.2 1.4,3.8c0,0.6 0.7,2.8 1.6,4.9c1.1,2.7 1.8,3.5 2.6,2.7c0.7,-0.7 0.7,-3.2 -0.1,-8.4c-0.7,-4 -1.8,-11.8 -2.6,-17.3c-1.3,-9.6 -3.2,-21.7 -5.5,-35.5c-2.3,-13.8 -4.2,-26.8 -5.1,-35c-0.5,-4.7 -1.4,-9.3 -1.9,-10.2c-0.6,-1 -1,-3 -1,-4.5c0,-3 -2.5,-20.4 -4.1,-28.8c-0.6,-2.7 -1.4,-8.1 -1.9,-12c-0.5,-3.8 -1.6,-11.5 -2.5,-17c-0.8,-5.5 -2.2,-14.5 -3,-20c-0.7,-5.5 -2.1,-14 -2.9,-19c-3.1,-19.2 -3.7,-23.4 -5.6,-36.5c-1,-7.4 -2.4,-16.4 -3,-20c-0.6,-3.6 -1.8,-11 -2.6,-16.5c-0.8,-5.5 -1.9,-12.5 -2.4,-15.5c-0.5,-3 -1.4,-9.5 -2,-14.5c-0.7,-4.9 -1.5,-9.7 -1.8,-10.5c-0.3,-0.8 -1.2,-5.8 -2,-11c-1.2,-7.9 -1.5,-34.8 -1.8,-158.2l-0.4,-148.8l91.5,0l91.5,0l0,412.5c0,226.9 -0.3,412.4 -0.7,412.3c-0.5,-0.2 -50.7,-0.4 -111.8,-0.6l0,0z" transform = "matrix(0.9999999,0,0,0.9999999,0,67.63113)" vector-effect="non-scaling-stroke" pen = "1,1" />
</g>
</g>
</svg>
